<?xml version="1.0" encoding="UTF-8"?>
<svg width="1554px" height="507px" viewBox="0 0 1554 507" version="1.1" xmlns="http://www.w3.org/2000/svg" xmlns:xlink="http://www.w3.org/1999/xlink">
    <title>Artboard</title>
    <g id="Artboard" stroke="none" stroke-width="1" fill="none" fill-rule="evenodd">
        <path d="M481.660419,389.396832 L481.660419,349.902432 L496.081879,349.902432 L522.896782,389.396832 L579.681283,389.396832 L546.556991,340.926432 C556.171298,335.989632 563.532252,329.332432 568.639852,320.954832 C573.747453,312.577232 576.301253,302.778432 576.301253,291.558432 C576.301253,279.590432 573.371894,269.118432 567.513176,260.142432 C561.654457,251.166432 553.317051,244.284832 542.500955,239.497632 C531.68486,234.710432 518.99097,232.316832 504.419286,232.316832 L504.419286,232.316832 L428.481283,232.316832 L428.481283,389.396832 L481.660419,389.396832 Z M500.850514,310.436832 L481.401283,310.436832 L481.401283,273.476832 L500.850514,273.476832 C508.087437,273.476832 513.515129,275.091954 517.133591,278.322198 C520.752052,281.552442 522.561283,286.09732 522.561283,291.956832 C522.561283,297.816344 520.752052,302.361222 517.133591,305.591466 C513.515129,308.82171 508.087437,310.436832 500.850514,310.436832 L500.850514,310.436832 Z M671.241283,391.916832 C685.012352,391.916832 697.323987,389.177079 708.176189,383.697573 C719.02839,378.218067 727.485623,370.636832 733.547887,360.953869 C739.610151,351.270906 742.641283,340.274363 742.641283,327.964239 C742.641283,315.654116 739.610151,304.657573 733.547887,294.97461 C727.485623,285.291647 719.02839,277.747943 708.176189,272.343499 C697.323987,266.939054 685.012352,264.236832 671.241283,264.236832 C657.619899,264.236832 645.383107,266.939054 634.530906,272.343499 C623.678704,277.747943 615.18405,285.291647 609.046943,294.97461 C602.909836,304.657573 599.841283,315.654116 599.841283,327.964239 C599.841283,340.274363 602.909836,351.270906 609.046943,360.953869 C615.18405,370.636832 623.678704,378.218067 634.530906,383.697573 C645.383107,389.177079 657.619899,391.916832 671.241283,391.916832 Z M671.241283,352.436832 C665.351845,352.436832 660.519485,350.284088 656.744204,345.9786 C652.968923,341.673111 651.081283,335.668088 651.081283,327.96353 C651.081283,320.258972 652.968923,314.291716 656.744204,310.061762 C660.519485,305.831809 665.351845,303.716832 671.241283,303.716832 C677.130721,303.716832 681.963081,305.831809 685.738362,310.061762 C689.513643,314.291716 691.401283,320.258972 691.401283,327.96353 C691.401283,335.668088 689.513643,341.673111 685.738362,345.9786 C681.963081,350.284088 677.130721,352.436832 671.241283,352.436832 Z M835.881283,391.916832 C849.652352,391.916832 861.963987,389.177079 872.816189,383.697573 C883.66839,378.218067 892.125623,370.636832 898.187887,360.953869 C904.250151,351.270906 907.281283,340.274363 907.281283,327.964239 C907.281283,315.654116 904.250151,304.657573 898.187887,294.97461 C892.125623,285.291647 883.66839,277.747943 872.816189,272.343499 C861.963987,266.939054 849.652352,264.236832 835.881283,264.236832 C822.259899,264.236832 810.023107,266.939054 799.170906,272.343499 C788.318704,277.747943 779.82405,285.291647 773.686943,294.97461 C767.549836,304.657573 764.481283,315.654116 764.481283,327.964239 C764.481283,340.274363 767.549836,351.270906 773.686943,360.953869 C779.82405,370.636832 788.318704,378.218067 799.170906,383.697573 C810.023107,389.177079 822.259899,391.916832 835.881283,391.916832 Z M835.881283,352.436832 C829.991845,352.436832 825.159485,350.284088 821.384204,345.9786 C817.608923,341.673111 815.721283,335.668088 815.721283,327.96353 C815.721283,320.258972 817.608923,314.291716 821.384204,310.061762 C825.159485,305.831809 829.991845,303.716832 835.881283,303.716832 C841.770721,303.716832 846.603081,305.831809 850.378362,310.061762 C854.153643,314.291716 856.041283,320.258972 856.041283,327.96353 C856.041283,335.668088 854.153643,341.673111 850.378362,345.9786 C846.603081,350.284088 841.770721,352.436832 835.881283,352.436832 Z M992.456912,389.396832 L992.456912,310.365343 L1017.58645,310.365343 L1017.58645,273.319332 L990.886316,273.319332 L990.886316,273.094811 C990.886316,268.305024 991.970775,264.750103 994.139694,262.43005 C996.308612,260.109997 999.262828,258.94997 1003.00234,258.94997 C1006.4427,258.94997 1010.257,259.922896 1014.44526,261.868747 L1014.44526,261.868747 L1026.56128,226.618907 C1022.97135,224.673055 1018.48393,223.176247 1013.09903,222.128481 C1007.71413,221.080715 1002.17965,220.556832 996.495588,220.556832 C979.144241,220.556832 965.681989,225.234359 956.108833,234.589412 C946.535676,243.944465 941.749098,256.629917 941.749098,272.645768 L941.749098,272.645768 L941.749098,273.319332 L924.921283,273.319332 L924.921283,310.365343 L941.749098,310.365343 L941.749098,389.396832 L992.456912,389.396832 Z M1093.74781,391.076832 C1098.68898,391.076832 1103.48043,390.366955 1108.12214,388.9472 C1112.76385,387.527446 1116.6569,385.472538 1119.80128,382.782476 L1119.80128,382.782476 L1113.06332,367.314623 C1108.4216,371.05082 1102.80663,372.918918 1096.2184,372.918918 C1090.22909,372.918918 1085.62481,371.200268 1082.40556,367.762967 C1079.18631,364.325666 1077.57668,359.393887 1077.57668,352.96763 L1077.57668,352.96763 L1077.57668,288.630329 L1111.71572,288.630329 L1111.71572,270.920758 L1077.57668,270.920758 L1077.57668,244.916832 L1056.01519,244.916832 L1056.01519,270.920758 L1035.80128,270.920758 L1035.80128,288.630329 L1056.01519,288.630329 L1056.01519,353.864317 C1056.01519,365.820145 1059.3093,375.011188 1065.89754,381.437446 C1072.48578,387.863703 1081.7692,391.076832 1093.74781,391.076832 Z M1204.7541,391.076832 C1216.63707,391.076832 1227.27911,388.450215 1236.68019,383.19698 C1246.08128,377.943745 1253.45174,370.701786 1258.79156,361.471102 C1264.13137,352.240418 1266.80128,341.771472 1266.80128,330.064263 C1266.80128,318.357054 1264.13137,307.888107 1258.79156,298.657424 C1253.45174,289.42674 1246.08128,282.222303 1236.68019,277.044115 C1227.27911,271.865926 1216.63707,269.276832 1204.7541,269.276832 C1192.87112,269.276832 1182.19148,271.865926 1172.71519,277.044115 C1163.23889,282.222303 1155.83083,289.42674 1150.49101,298.657424 C1145.15119,307.888107 1142.48128,318.357054 1142.48128,330.064263 C1142.48128,341.771472 1145.15119,352.240418 1150.49101,361.471102 C1155.83083,370.701786 1163.23889,377.943745 1172.71519,383.19698 C1182.19148,388.450215 1192.87112,391.076832 1204.7541,391.076832 Z M1204.75422,372.596832 C1197.07422,372.596832 1190.18481,370.832757 1184.08599,367.304607 C1177.98717,363.776457 1173.16834,358.822033 1169.62952,352.441336 C1166.09069,346.060639 1164.32128,338.741604 1164.32128,330.484232 C1164.32128,322.226859 1166.09069,314.907824 1169.62952,308.527127 C1173.16834,302.14643 1177.98717,297.22954 1184.08599,293.776457 C1190.18481,290.323374 1197.07422,288.596832 1204.75422,288.596832 C1212.43422,288.596832 1219.32364,290.323374 1225.42246,293.776457 C1231.52128,297.22954 1236.30246,302.14643 1239.76599,308.527127 C1243.22952,314.907824 1244.96128,322.226859 1244.96128,330.484232 C1244.96128,338.741604 1243.22952,346.060639 1239.76599,352.441336 C1236.30246,358.822033 1231.52128,363.776457 1225.42246,367.304607 C1219.32364,370.832757 1212.43422,372.596832 1204.75422,372.596832 Z M1330.39341,433.076832 L1330.39341,371.5114 C1335.34161,377.802758 1341.37691,382.596174 1348.49932,385.891647 C1355.62172,389.18712 1363.45636,390.834857 1372.00325,390.834857 C1383.54904,390.834857 1393.89527,388.288355 1403.04194,383.195351 C1412.18861,378.102346 1419.3485,370.949672 1424.52161,361.737326 C1429.69473,352.52498 1432.28128,341.927038 1432.28128,329.943499 C1432.28128,317.95996 1429.69473,307.399466 1424.52161,298.262017 C1419.3485,289.124569 1412.18861,282.009342 1403.04194,276.916338 C1393.89527,271.823334 1383.54904,269.276832 1372.00325,269.276832 C1363.15647,269.276832 1355.05943,270.962017 1347.7121,274.332388 C1340.36478,277.702758 1334.29199,282.683416 1329.49374,289.274363 L1329.49374,289.274363 L1329.49374,270.400289 L1308.80128,270.400289 L1308.80128,433.076832 L1330.39341,433.076832 Z M1370.00834,372.596832 C1362.47893,372.596832 1355.62717,370.832757 1349.45305,367.304607 C1343.27893,363.776457 1338.46011,358.822033 1334.99658,352.441336 C1331.53305,346.060639 1329.80128,338.741604 1329.80128,330.484232 C1329.80128,322.226859 1331.57069,314.945358 1335.10952,308.639728 C1338.64834,302.334097 1343.46717,297.417207 1349.56599,293.889057 C1355.66481,290.360907 1362.47893,288.596832 1370.00834,288.596832 C1377.68834,288.596832 1384.57775,290.323374 1390.67658,293.776457 C1396.7754,297.22954 1401.59422,302.14643 1405.13305,308.527127 C1408.67187,314.907824 1410.44128,322.226859 1410.44128,330.484232 C1410.44128,338.741604 1408.67187,346.060639 1405.13305,352.441336 C1401.59422,358.822033 1396.7754,363.776457 1390.67658,367.304607 C1384.57775,370.832757 1377.68834,372.596832 1370.00834,372.596832 Z" id="Rooftop-text" fill="#3B3B3B" fill-rule="nonzero"></path>
        <path d="M356.070343,233.607488 L365.310343,231.686956 C365.764554,231.592548 366.209298,231.884227 366.303706,232.338438 C366.315393,232.394668 366.321283,232.451948 366.321283,232.509379 L366.321283,383.936832 C366.321283,386.952307 363.876758,389.396832 360.861283,389.396832 C357.845808,389.396832 355.401283,386.952307 355.401283,383.936832 L355.401283,234.429911 C355.401283,234.031877 355.680638,233.688488 356.070343,233.607488 Z" id="Peg" fill="#3B3B3B"></path>
        <g id="umbrella" transform="translate(82.076983, 3.290843)" fill="#3B3B3B">
            <path d="M278.838952,67 L278.906851,67.000413 C278.969767,67.0010781 279.032706,67.0023127 279.095662,67.0041186 C279.118201,67.0053037 279.14085,67.0060634 279.163494,67.0068966 C279.789776,67.0283319 280.417397,67.1069853 281.038614,67.2442242 C283.764451,67.8483087 286.24353,69.5344459 287.777527,72.1259185 L287.777527,72.1259185 L287.987495,72.4711481 C289.774078,75.3318284 292.628022,78.033646 296.550613,80.5760296 C351.502784,93.3442804 394.286576,107.653932 424.901986,123.504984 C475.660991,149.78533 539.490488,201.578148 546.290852,215.093752 C548.383686,219.253222 538.78595,219.540226 522.939603,219.560029 L521.961658,219.560938 L516.881426,219.561117 C509.814216,219.557892 501.357297,219.527252 493.034867,219.236174 L493.034867,219.236174 L491.567909,219.182056 C479.115908,218.698269 467.168236,217.597653 460.869058,215.093752 C455.896126,213.117029 419.323588,163.966849 386.686973,139.14209 C368.076703,124.986349 339.070794,107.684966 299.6681,87.2373652 C310.470191,95.7258383 318.49569,108.097488 323.744598,124.352315 C326.20571,131.973891 329.031143,139.995238 331.886805,147.987837 L331.886805,147.987837 L332.744077,150.384325 C332.855553,150.695645 332.967025,151.006856 333.078471,151.317933 L333.078471,151.317933 L333.746698,153.182578 C344.539788,183.295041 354.727982,211.665297 346.224018,215.093752 C341.315766,217.07256 325.558404,218.386813 308.731136,219.050889 L308.731136,219.050889 L307.5275,219.097217 L306.321018,219.141336 L305.716957,219.162566 L304.179276,219.214066 C303.666449,219.230637 303.153447,219.246614 302.64054,219.261997 L302.64054,219.261997 L301.102378,219.306363 C294.953046,219.4767 288.856539,219.561524 283.281643,219.561524 L283.281643,219.561524 L282.738299,219.56092 C281.472773,219.558122 280.15672,219.545606 278.790138,219.523371 C277.419797,219.5456 276.10341,219.558122 274.837576,219.56092 L274.294233,219.561524 C268.719336,219.561524 262.622829,219.4767 256.473497,219.306363 L254.935335,219.261997 C254.422428,219.246614 253.909426,219.230637 253.3966,219.214066 L251.858918,219.162566 L251.254857,219.141336 L250.048375,219.097217 L248.844739,219.050889 C232.017472,218.386813 216.260109,217.07256 211.351858,215.093752 C202.847893,211.665297 213.036087,183.295041 223.829177,153.182578 L224.497404,151.317933 C224.608851,151.006856 224.720322,150.695645 224.831798,150.384325 L225.68907,147.987837 C228.544732,139.995238 231.370165,131.973891 233.831277,124.352315 C239.080185,108.097488 247.105684,95.7258383 257.907775,87.2373652 C218.505081,107.684966 189.499172,124.986349 170.888902,139.14209 C138.252288,163.966849 101.679749,213.117029 96.7068174,215.093752 C90.4076393,217.597653 78.4599676,218.698269 66.0079661,219.182056 L64.5410082,219.236174 C56.2185776,219.527252 47.7616592,219.557892 40.6944495,219.561117 L35.6142176,219.560938 L34.6362719,219.560029 C18.7899253,219.540226 9.19218876,219.253222 11.2850227,215.093752 C18.0853871,201.578148 81.9148846,149.78533 132.673889,123.504984 C163.2893,107.653932 206.073091,93.3442804 261.025262,80.5760296 C264.947853,78.033646 267.801797,75.3318284 269.58838,72.4711481 L269.798349,72.1259185 C271.332483,69.5342136 273.811869,67.8480063 276.537765,67.2464043 C277.158478,67.1069853 277.786099,67.0283319 278.412403,67.0062848 C278.435061,67.0060621 278.457746,67.0053013 278.480437,67.0046144 C278.542971,67.0023183 278.605713,67.0010859 278.668431,67.0004193 C278.691474,67.0003337 278.714196,67.0001297 278.736923,67 L278.838952,67 L278.838952,67 Z" transform="translate(278.787938, 143.280762) rotate(-15.000000) translate(-278.787938, -143.280762) "></path>
        </g>
    </g>
</svg>
