<?xml version="1.0" encoding="UTF-8"?>
<svg width="256px" height="256px" viewBox="0 0 256 256" version="1.1" xmlns="http://www.w3.org/2000/svg" xmlns:xlink="http://www.w3.org/1999/xlink">
    <title>dribbble-ball-mark-seeklogo.com</title>
    <defs>
        <polygon id="path-1" points="0 0.169 256 0.169 256 256.169 0 256.169"></polygon>
    </defs>
    <g id="dribbble-ball-mark-seeklogo.com" stroke="none" stroke-width="1" fill="none" fill-rule="evenodd">
        <mask id="mask-2" fill="white">
            <use xlink:href="#path-1"></use>
        </mask>
        <g id="Clip-2"></g>
        <path d="M212.630087,59.1185913 C210.32522,62.2319078 192.004147,85.6865481 151.579924,102.168966 C154.124008,107.369758 156.563326,112.659603 158.83327,117.983496 C159.638228,119.871042 160.422232,121.748985 161.188774,123.61907 C197.568131,119.05037 233.714381,126.371815 237.319228,127.133119 C237.078265,101.362262 227.857051,77.6980888 212.630087,59.1185913 Z M102.378872,22.0137257 C105.401391,26.0551003 125.258169,53.060458 143.174144,85.9327498 C182.051312,71.380658 198.509285,49.2888576 200.475406,46.4924603 C181.168653,29.3849346 155.780195,18.9789842 128.000437,18.9789842 C119.179082,18.9789842 110.60131,20.0353816 102.378872,22.0137257 Z M20.9777814,105.801751 C25.8677662,105.866357 70.9121999,106.061921 122.054054,92.4990014 C103.938149,60.3391231 84.4000368,33.3005893 81.5180801,29.3526316 C50.930575,43.7615422 28.0669934,71.9210795 20.9777814,105.801751 Z M46.7748301,201.169986 C49.251689,196.935666 79.2568659,147.319912 135.644039,129.118448 C137.068866,128.658348 138.505915,128.226185 139.952569,127.819341 C137.207682,121.616281 134.218339,115.407109 131.088434,109.289608 C76.4892795,125.608764 23.5078967,124.926908 18.7244248,124.829126 C18.6903756,125.937033 18.6676761,127.048433 18.6676761,128.165071 C18.6676761,156.207619 29.3128438,181.812595 46.7748301,201.169986 Z M170.7077,228.672985 C169.081198,219.093818 162.73321,185.70817 147.384018,145.874132 C147.143928,145.955326 146.902965,146.033028 146.662874,146.116842 C84.9954608,167.57655 62.8591345,210.284687 60.8912671,214.301616 C79.4288579,228.737591 102.725475,237.351158 128.000437,237.351158 C143.145333,237.351158 157.580435,234.257049 170.7077,228.672985 Z M235.949404,145.496099 C232.20836,144.317474 202.10802,135.352065 167.84757,140.828744 C182.147349,180.072596 187.967138,212.035163 189.087268,218.677371 C213.615767,202.113759 231.076007,175.87669 235.949404,145.496099 Z M128.000437,255.826762 C57.4208708,255.826762 0,198.483593 0,127.998318 C0,57.5130419 57.4208708,0.169 128.000437,0.169 C198.579129,0.169 256,57.5130419 256,127.998318 C256,198.483593 198.579129,255.826762 128.000437,255.826762 L128.000437,255.826762 Z" id="Fill-1" fill="#000000" mask="url(#mask-2)"></path>
    </g>
</svg>