<?xml version="1.0" encoding="UTF-8"?>
<svg width="944px" height="180px" viewBox="0 0 944 180" version="1.1" xmlns="http://www.w3.org/2000/svg" xmlns:xlink="http://www.w3.org/1999/xlink">
    <title>Extended</title>
    <g id="Extended" stroke="none" stroke-width="1" fill="none" fill-rule="evenodd">
        <circle id="Oval" fill="#ACFFD7" cx="90" cy="90" r="90"></circle>
        <g id="Group" transform="translate(26.000000, 20.000000)" fill="#3B3B3B" font-family="Poppins-ExtraBold, Poppins" font-size="100" font-weight="600" letter-spacing="5.33333333">
            <text id="T" opacity="0.745861235">
                <tspan x="0" y="105">T</tspan>
            </text>
            <text id="C" opacity="0.745861235">
                <tspan x="41" y="105">C</tspan>
            </text>
            <text id="." opacity="0.75">
                <tspan x="99" y="105">.</tspan>
            </text>
        </g>
        <path d="M222.33625,118 L222.33625,110.4475 L216.77125,110.4475 C214.91625,110.4475 213.6045,110.08975 212.836,109.37425 C212.0675,108.65875 211.68325,107.4795 211.68325,105.8365 L211.68325,105.8365 L211.68325,81.589 L222.33625,81.589 L222.33625,74.1955 L211.68325,74.1955 L211.68325,63.304 L202.54075,63.304 L202.54075,74.1955 L197.37325,74.1955 L197.37325,81.589 L202.54075,81.589 L202.54075,105.8365 C202.54075,110.1295 203.62725,113.23 205.80025,115.138 C207.97325,117.046 211.10025,118 215.18125,118 L215.18125,118 L222.33625,118 Z M251.19475,118.7155 C255.38175,118.7155 259.211,117.77475 262.6825,115.89325 C266.154,114.01175 268.89675,111.3485 270.91075,107.9035 C272.92475,104.4585 273.93175,100.51 273.93175,96.058 C273.93175,91.606 272.95125,87.6575 270.99025,84.2125 C269.02925,80.7675 266.35275,78.1175 262.96075,76.2625 C259.56875,74.4075 255.77925,73.48 251.59225,73.48 C247.40525,73.48 243.61575,74.4075 240.22375,76.2625 C236.83175,78.1175 234.15525,80.7675 232.19425,84.2125 C230.23325,87.6575 229.25275,91.606 229.25275,96.058 C229.25275,100.563 230.20675,104.52475 232.11475,107.94325 C234.02275,111.36175 236.64625,114.01175 239.98525,115.89325 C243.32425,117.77475 247.06075,118.7155 251.19475,118.7155 Z M251.19475,110.845 C247.53775,110.845 244.5035,109.55975 242.092,106.98925 C239.6805,104.41875 238.47475,100.775 238.47475,96.058 C238.47475,92.878 239.05775,90.18825 240.22375,87.98875 C241.38975,85.78925 242.9665,84.133 244.954,83.02 C246.9415,81.907 249.10125,81.3505 251.43325,81.3505 C253.76525,81.3505 255.93825,81.907 257.95225,83.02 C259.96625,84.133 261.58275,85.78925 262.80175,87.98875 C264.02075,90.18825 264.63025,92.878 264.63025,96.058 C264.63025,99.238 263.99425,101.941 262.72225,104.167 C261.45025,106.393 259.794,108.0625 257.7535,109.1755 C255.713,110.2885 253.52675,110.845 251.19475,110.845 Z M293.48875,118 L293.48875,93.514 C293.48875,89.592 294.4825,86.58425 296.47,84.49075 C298.4575,82.39725 301.14725,81.3505 304.53925,81.3505 C307.93125,81.3505 310.60775,82.39725 312.56875,84.49075 C314.52975,86.58425 315.51025,89.592 315.51025,93.514 L315.51025,93.514 L315.51025,118 L324.49375,118 L324.49375,93.514 C324.49375,89.592 325.4875,86.58425 327.475,84.49075 C329.4625,82.39725 332.15225,81.3505 335.54425,81.3505 C338.93625,81.3505 341.61275,82.39725 343.57375,84.49075 C345.53475,86.58425 346.51525,89.592 346.51525,93.514 L346.51525,93.514 L346.51525,118 L355.49875,118 L355.49875,92.1625 C355.49875,88.1875 354.717,84.7955 353.1535,81.9865 C351.59,79.1775 349.4435,77.0575 346.714,75.6265 C343.9845,74.1955 340.89725,73.48 337.45225,73.48 C334.21925,73.48 331.19825,74.26175 328.38925,75.82525 C325.58025,77.38875 323.51325,79.4955 322.18825,82.1455 C320.70425,79.3365 318.58425,77.19 315.82825,75.706 C313.07225,74.222 309.94525,73.48 306.44725,73.48 C303.85025,73.48 301.41225,73.9835 299.13325,74.9905 C296.85425,75.9975 294.97275,77.402 293.48875,79.204 L293.48875,79.204 L293.48875,74.1955 L284.42575,74.1955 L284.42575,118 L293.48875,118 Z M386.98075,118.7155 C392.17475,118.7155 396.52075,117.40375 400.01875,114.78025 C403.51675,112.15675 405.90175,108.619 407.17375,104.167 L407.17375,104.167 L397.39525,104.167 C395.69925,108.778 392.22775,111.0835 386.98075,111.0835 C383.27075,111.0835 380.316,109.7585 378.1165,107.1085 C375.917,104.4585 374.81725,100.775 374.81725,96.058 C374.81725,91.341 375.917,87.67075 378.1165,85.04725 C380.316,82.42375 383.27075,81.112 386.98075,81.112 C389.63075,81.112 391.83025,81.7215 393.57925,82.9405 C395.32825,84.1595 396.60025,85.8555 397.39525,88.0285 L397.39525,88.0285 L407.17375,88.0285 C405.95475,83.3645 403.6095,79.77375 400.138,77.25625 C396.6665,74.73875 392.28075,73.48 386.98075,73.48 C382.79375,73.48 379.08375,74.4075 375.85075,76.2625 C372.61775,78.1175 370.087,80.75425 368.2585,84.17275 C366.43,87.59125 365.51575,91.553 365.51575,96.058 C365.51575,100.563 366.43,104.52475 368.2585,107.94325 C370.087,111.36175 372.61775,114.01175 375.85075,115.89325 C379.08375,117.77475 382.79375,118.7155 386.98075,118.7155 Z M426.81025,118 L426.81025,93.514 C426.81025,89.592 427.804,86.58425 429.7915,84.49075 C431.779,82.39725 434.46875,81.3505 437.86075,81.3505 C441.25275,81.3505 443.92925,82.39725 445.89025,84.49075 C447.85125,86.58425 448.83175,89.592 448.83175,93.514 L448.83175,93.514 L448.83175,118 L457.81525,118 L457.81525,92.1625 C457.81525,88.1875 457.06,84.7955 455.5495,81.9865 C454.039,79.1775 451.972,77.0575 449.3485,75.6265 C446.725,74.1955 443.74375,73.48 440.40475,73.48 C437.59575,73.48 435.012,73.9835 432.6535,74.9905 C430.295,75.9975 428.34725,77.4285 426.81025,79.2835 L426.81025,79.2835 L426.81025,59.17 L417.74725,59.17 L417.74725,118 L426.81025,118 Z M488.34325,118.7155 C491.73525,118.7155 494.75625,118.0265 497.40625,116.6485 C500.05625,115.2705 502.14975,113.548 503.68675,111.481 L503.68675,111.481 L503.68675,118 L512.82925,118 L512.82925,74.1955 L503.68675,74.1955 L503.68675,80.5555 C502.14975,78.5415 500.096,76.85875 497.5255,75.50725 C494.955,74.15575 491.94725,73.48 488.50225,73.48 C484.68625,73.48 481.2015,74.42075 478.048,76.30225 C474.8945,78.18375 472.4035,80.8205 470.575,84.2125 C468.7465,87.6045 467.83225,91.5 467.83225,95.899 C467.83225,100.298 468.7465,104.23325 470.575,107.70475 C472.4035,111.17625 474.88125,113.87925 478.00825,115.81375 C481.13525,117.74825 484.58025,118.7155 488.34325,118.7155 Z M490.41025,110.845 C488.13125,110.845 485.9715,110.24875 483.931,109.05625 C481.8905,107.86375 480.2475,106.128 479.002,103.849 C477.7565,101.57 477.13375,98.92 477.13375,95.899 C477.13375,92.878 477.7565,90.26775 479.002,88.06825 C480.2475,85.86875 481.87725,84.19925 483.89125,83.05975 C485.90525,81.92025 488.07825,81.3505 490.41025,81.3505 C492.74225,81.3505 494.91525,81.9335 496.92925,83.0995 C498.94325,84.2655 500.573,85.9615 501.8185,88.1875 C503.064,90.4135 503.68675,93.037 503.68675,96.058 C503.68675,99.079 503.064,101.71575 501.8185,103.96825 C500.573,106.22075 498.94325,107.93 496.92925,109.096 C494.91525,110.262 492.74225,110.845 490.41025,110.845 Z M535.32775,118 L535.32775,94.945 C535.32775,90.493 536.242,87.366 538.0705,85.564 C539.899,83.762 542.58875,82.861 546.13975,82.861 L546.13975,82.861 L548.44525,82.861 L548.44525,73.48 C545.42425,73.48 542.814,74.10275 540.6145,75.34825 C538.415,76.59375 536.65275,78.3295 535.32775,80.5555 L535.32775,80.5555 L535.32775,74.1955 L526.26475,74.1955 L526.26475,118 L535.32775,118 Z M567.36625,118 L567.36625,59.17 L558.30325,59.17 L558.30325,118 L567.36625,118 Z M585.41275,68.392 C587.00275,68.392 588.35425,67.8355 589.46725,66.7225 C590.58025,65.6095 591.13675,64.2315 591.13675,62.5885 C591.13675,60.9455 590.58025,59.5675 589.46725,58.4545 C588.35425,57.3415 587.00275,56.785 585.41275,56.785 C583.76975,56.785 582.39175,57.3415 581.27875,58.4545 C580.16575,59.5675 579.60925,60.9455 579.60925,62.5885 C579.60925,64.2315 580.16575,65.6095 581.27875,66.7225 C582.39175,67.8355 583.76975,68.392 585.41275,68.392 Z M589.86475,118 L589.86475,74.1955 L580.80175,74.1955 L580.80175,118 L589.86475,118 Z M622.14175,118.7155 C627.28275,118.7155 631.589,117.43025 635.0605,114.85975 C638.532,112.28925 640.93025,108.99 642.25525,104.962 L642.25525,104.962 L632.47675,104.962 C630.46275,109.043 627.01775,111.0835 622.14175,111.0835 C618.74975,111.0835 615.88775,110.0235 613.55575,107.9035 C611.22375,105.7835 609.92525,102.9745 609.66025,99.4765 L609.66025,99.4765 L643.12975,99.4765 C643.34175,98.1515 643.44775,96.6675 643.44775,95.0245 C643.44775,90.7845 642.54675,87.03475 640.74475,83.77525 C638.94275,80.51575 636.42525,77.985 633.19225,76.183 C629.95925,74.381 626.27575,73.48 622.14175,73.48 C617.84875,73.48 614.046,74.4075 610.7335,76.2625 C607.421,78.1175 604.8505,80.75425 603.022,84.17275 C601.1935,87.59125 600.27925,91.553 600.27925,96.058 C600.27925,100.563 601.22,104.52475 603.1015,107.94325 C604.983,111.36175 607.58,114.01175 610.8925,115.89325 C614.205,117.77475 617.95475,118.7155 622.14175,118.7155 Z M633.98725,92.1625 L609.73975,92.1625 C610.16375,88.7705 611.48875,86.08075 613.71475,84.09325 C615.94075,82.10575 618.61725,81.112 621.74425,81.112 C625.18925,81.112 628.07775,82.119 630.40975,84.133 C632.74175,86.147 633.93425,88.8235 633.98725,92.1625 L633.98725,92.1625 Z M671.51125,118.7155 C674.90325,118.7155 677.911,118.0265 680.5345,116.6485 C683.158,115.2705 685.21175,113.5215 686.69575,111.4015 L686.69575,111.4015 L686.69575,118 L695.83825,118 L695.83825,59.17 L686.69575,59.17 L686.69575,80.317 C685.05275,78.25 682.84,76.59375 680.0575,75.34825 C677.275,74.10275 674.45275,73.48 671.59075,73.48 C667.72175,73.48 664.2105,74.42075 661.057,76.30225 C657.9035,78.18375 655.4125,80.8205 653.584,84.2125 C651.7555,87.6045 650.84125,91.5 650.84125,95.899 C650.84125,100.298 651.7555,104.23325 653.584,107.70475 C655.4125,111.17625 657.9035,113.87925 661.057,115.81375 C664.2105,117.74825 667.69525,118.7155 671.51125,118.7155 Z M673.41925,110.845 C671.14025,110.845 668.9805,110.24875 666.94,109.05625 C664.8995,107.86375 663.2565,106.128 662.011,103.849 C660.7655,101.57 660.14275,98.92 660.14275,95.899 C660.14275,92.878 660.7655,90.26775 662.011,88.06825 C663.2565,85.86875 664.88625,84.19925 666.90025,83.05975 C668.91425,81.92025 671.08725,81.3505 673.41925,81.3505 C675.75125,81.3505 677.92425,81.9335 679.93825,83.0995 C681.95225,84.2655 683.582,85.9615 684.8275,88.1875 C686.073,90.4135 686.69575,93.037 686.69575,96.058 C686.69575,99.079 686.073,101.71575 684.8275,103.96825 C683.582,106.22075 681.95225,107.93 679.93825,109.096 C677.92425,110.262 675.75125,110.845 673.41925,110.845 Z M728.11525,118.7155 C733.25625,118.7155 737.5625,117.43025 741.034,114.85975 C744.5055,112.28925 746.90375,108.99 748.22875,104.962 L748.22875,104.962 L738.45025,104.962 C736.43625,109.043 732.99125,111.0835 728.11525,111.0835 C724.72325,111.0835 721.86125,110.0235 719.52925,107.9035 C717.19725,105.7835 715.89875,102.9745 715.63375,99.4765 L715.63375,99.4765 L749.10325,99.4765 C749.31525,98.1515 749.42125,96.6675 749.42125,95.0245 C749.42125,90.7845 748.52025,87.03475 746.71825,83.77525 C744.91625,80.51575 742.39875,77.985 739.16575,76.183 C735.93275,74.381 732.24925,73.48 728.11525,73.48 C723.82225,73.48 720.0195,74.4075 716.707,76.2625 C713.3945,78.1175 710.824,80.75425 708.9955,84.17275 C707.167,87.59125 706.25275,91.553 706.25275,96.058 C706.25275,100.563 707.1935,104.52475 709.075,107.94325 C710.9565,111.36175 713.5535,114.01175 716.866,115.89325 C720.1785,117.77475 723.92825,118.7155 728.11525,118.7155 Z M739.96075,92.1625 L715.71325,92.1625 C716.13725,88.7705 717.46225,86.08075 719.68825,84.09325 C721.91425,82.10575 724.59075,81.112 727.71775,81.112 C731.16275,81.112 734.05125,82.119 736.38325,84.133 C738.71525,86.147 739.90775,88.8235 739.96075,92.1625 L739.96075,92.1625 Z M775.73575,118.7155 C779.12775,118.7155 782.0825,118.159 784.6,117.046 C787.1175,115.933 789.06525,114.396 790.44325,112.435 C791.82125,110.474 792.51025,108.248 792.51025,105.757 C792.45725,102.948 791.68875,100.6955 790.20475,98.9995 C788.72075,97.3035 786.9585,96.01825 784.918,95.14375 C782.8775,94.26925 780.26725,93.408 777.08725,92.56 C774.70225,91.871 772.90025,91.30125 771.68125,90.85075 C770.46225,90.40025 769.42875,89.7775 768.58075,88.9825 C767.73275,88.1875 767.30875,87.207 767.30875,86.041 C767.30875,84.557 767.94475,83.3645 769.21675,82.4635 C770.48875,81.5625 772.31725,81.112 774.70225,81.112 C777.14025,81.112 779.07475,81.695 780.50575,82.861 C781.93675,84.027 782.73175,85.5905 782.89075,87.5515 L782.89075,87.5515 L791.95375,87.5515 C791.74175,83.2055 790.112,79.77375 787.0645,77.25625 C784.017,74.73875 780.00225,73.48 775.02025,73.48 C771.68125,73.48 768.7265,74.0365 766.156,75.1495 C763.5855,76.2625 761.61125,77.78625 760.23325,79.72075 C758.85525,81.65525 758.16625,83.7885 758.16625,86.1205 C758.16625,88.9825 758.9215,91.288 760.432,93.037 C761.9425,94.786 763.73125,96.0845 765.79825,96.9325 C767.86525,97.7805 770.54175,98.655 773.82775,99.556 C777.21975,100.51 779.6975,101.3845 781.261,102.1795 C782.8245,102.9745 783.60625,104.1935 783.60625,105.8365 C783.60625,107.3735 782.904,108.63225 781.4995,109.61275 C780.095,110.59325 778.12075,111.0835 775.57675,111.0835 C773.13875,111.0835 771.1115,110.46075 769.495,109.21525 C767.8785,107.96975 766.99075,106.4195 766.83175,104.5645 L766.83175,104.5645 L757.45075,104.5645 C757.55675,107.2145 758.40475,109.61275 759.99475,111.75925 C761.58475,113.90575 763.7445,115.60175 766.474,116.84725 C769.2035,118.09275 772.29075,118.7155 775.73575,118.7155 Z M808.41025,68.392 C810.00025,68.392 811.35175,67.8355 812.46475,66.7225 C813.57775,65.6095 814.13425,64.2315 814.13425,62.5885 C814.13425,60.9455 813.57775,59.5675 812.46475,58.4545 C811.35175,57.3415 810.00025,56.785 808.41025,56.785 C806.76725,56.785 805.38925,57.3415 804.27625,58.4545 C803.16325,59.5675 802.60675,60.9455 802.60675,62.5885 C802.60675,64.2315 803.16325,65.6095 804.27625,66.7225 C805.38925,67.8355 806.76725,68.392 808.41025,68.392 Z M812.86225,118 L812.86225,74.1955 L803.79925,74.1955 L803.79925,118 L812.86225,118 Z M846.88825,139.624 C851.34025,139.624 855.1695,138.723 858.376,136.921 C861.5825,135.119 864.03375,132.64125 865.72975,129.48775 C867.42575,126.33425 868.27375,122.7435 868.27375,118.7155 L868.27375,118.7155 L868.27375,74.1955 L859.13125,74.1955 L859.13125,80.5555 C857.64725,78.5415 855.5935,76.85875 852.97,75.50725 C850.3465,74.15575 847.33875,73.48 843.94675,73.48 C840.13075,73.48 836.646,74.42075 833.4925,76.30225 C830.339,78.18375 827.848,80.8205 826.0195,84.2125 C824.191,87.6045 823.27675,91.5 823.27675,95.899 C823.27675,100.298 824.191,104.23325 826.0195,107.70475 C827.848,111.17625 830.339,113.87925 833.4925,115.81375 C836.646,117.74825 840.13075,118.7155 843.94675,118.7155 C847.28575,118.7155 850.267,118.01325 852.8905,116.60875 C855.514,115.20425 857.59425,113.4685 859.13125,111.4015 L859.13125,111.4015 L859.13125,118.7155 C859.13125,122.9555 858.005,126.1885 855.7525,128.4145 C853.5,130.6405 850.54525,131.7535 846.88825,131.7535 C843.76125,131.7535 841.0715,131.05125 838.819,129.64675 C836.5665,128.24225 835.09575,126.4005 834.40675,124.1215 L834.40675,124.1215 L825.42325,124.1215 C825.95325,128.8915 828.17925,132.66775 832.10125,135.45025 C836.02325,138.23275 840.95225,139.624 846.88825,139.624 Z M845.85475,110.845 C843.57575,110.845 841.416,110.24875 839.3755,109.05625 C837.335,107.86375 835.692,106.128 834.4465,103.849 C833.201,101.57 832.57825,98.92 832.57825,95.899 C832.57825,92.878 833.201,90.26775 834.4465,88.06825 C835.692,85.86875 837.32175,84.19925 839.33575,83.05975 C841.34975,81.92025 843.52275,81.3505 845.85475,81.3505 C848.18675,81.3505 850.35975,81.9335 852.37375,83.0995 C854.38775,84.2655 856.0175,85.9615 857.263,88.1875 C858.5085,90.4135 859.13125,93.037 859.13125,96.058 C859.13125,99.079 858.5085,101.71575 857.263,103.96825 C856.0175,106.22075 854.38775,107.93 852.37375,109.096 C850.35975,110.262 848.18675,110.845 845.85475,110.845 Z M890.77225,118 L890.77225,93.514 C890.77225,89.592 891.766,86.58425 893.7535,84.49075 C895.741,82.39725 898.43075,81.3505 901.82275,81.3505 C905.21475,81.3505 907.89125,82.39725 909.85225,84.49075 C911.81325,86.58425 912.79375,89.592 912.79375,93.514 L912.79375,93.514 L912.79375,118 L921.77725,118 L921.77725,92.1625 C921.77725,88.1875 921.00875,84.7955 919.47175,81.9865 C917.93475,79.1775 915.8015,77.0575 913.072,75.6265 C910.3425,74.1955 907.25525,73.48 903.81025,73.48 C901.21325,73.48 898.762,73.9835 896.4565,74.9905 C894.151,75.9975 892.25625,77.402 890.77225,79.204 L890.77225,79.204 L890.77225,74.1955 L881.70925,74.1955 L881.70925,118 L890.77225,118 Z" id="tomcharliedesign" fill="#000000" fill-rule="nonzero" opacity="0.75"></path>
    </g>
</svg>