<?xml version="1.0" encoding="UTF-8"?>
<svg width="256px" height="256px" viewBox="0 0 256 256" version="1.1" xmlns="http://www.w3.org/2000/svg" xmlns:xlink="http://www.w3.org/1999/xlink">
    <title>Artboard</title>
    <g id="Artboard" stroke="none" stroke-width="1" fill="none" fill-rule="evenodd">
        <g id="linkedin-icon-seeklogo.com" transform="translate(0.000000, 6.065637)" fill="#000000" fill-rule="nonzero">
            <path d="M0,28.4169884 C0,20.1800154 2.88296525,13.3846486 8.64864865,8.03088803 C14.414332,2.67688031 21.9099923,0 31.1351351,0 C40.1957066,0 47.5263012,2.6356139 53.1274131,7.90733591 C58.8930965,13.3436293 61.7760618,20.4271197 61.7760618,29.1583012 C61.7760618,37.0656371 58.9756293,43.6549189 53.3745174,48.9266409 C47.608834,54.3629344 40.030888,57.0810811 30.6409266,57.0810811 L30.3938224,57.0810811 C21.333251,57.0810811 14.0026564,54.3629344 8.4015444,48.9266409 C2.80043243,43.4903475 0,36.6537143 0,28.4169884 Z M3.21235521,244.633205 L3.21235521,79.5675676 L58.0694981,79.5675676 L58.0694981,244.633205 L3.21235521,244.633205 Z M88.4633205,244.633205 L143.320463,244.633205 L143.320463,152.46332 C143.320463,146.69739 143.97949,142.249514 145.297297,139.119691 C147.603521,133.518579 151.104247,128.782332 155.799228,124.911197 C160.494208,121.039815 166.383444,119.104247 173.467181,119.104247 C191.917714,119.104247 201.142857,131.541745 201.142857,156.416988 L201.142857,244.633205 L256,244.633205 L256,149.992278 C256,125.611243 250.234317,107.119691 238.702703,94.5173745 C227.171089,81.9150579 211.933158,75.6138996 192.988417,75.6138996 C171.737452,75.6138996 155.181467,84.7567568 143.320463,103.042471 L143.320463,103.53668 L143.073359,103.53668 L143.320463,103.042471 L143.320463,79.5675676 L88.4633205,79.5675676 C88.7927104,84.8390425 88.957529,101.230208 88.957529,128.741313 C88.957529,156.25217 88.7927104,194.882718 88.4633205,244.633205 Z" id="Shape"></path>
        </g>
    </g>
</svg>